REM DIRINDEX 1\2,1\3,1\4,1\5
REM DIRNAME cjc005,folder01,folder02,folder03,folder04
TITLE ""
FILE "P1Q_t_0292-0301.mp3" MP3
  TRACK 01 AUDIO
    TITLE "3:cjc005_1777"
    INDEX 01 00:00:00
  TRACK 02 AUDIO
    TITLE "0:"
    INDEX 01 00:01:07
  TRACK 03 AUDIO
    TITLE "4:cjc005_1778"
    INDEX 01 00:01:38
  TRACK 04 AUDIO
    TITLE "0:"
    INDEX 01 00:02:43
  TRACK 05 AUDIO
    TITLE "5:cjc005_1779"
    INDEX 01 00:02:73
  TRACK 06 AUDIO
    TITLE "0:"
    INDEX 01 00:07:29
  TRACK 07 AUDIO
    TITLE "3:cjc005_1780"
    INDEX 01 00:08:07
  TRACK 08 AUDIO
    TITLE "0:"
    INDEX 01 00:09:26
  TRACK 09 AUDIO
    TITLE "4:cjc005_1781"
    INDEX 01 00:09:47
  TRACK 10 AUDIO
    TITLE "0:"
    INDEX 01 00:10:61
  TRACK 11 AUDIO
    TITLE "5:cjc005_1782"
    INDEX 01 00:11:11
  TRACK 12 AUDIO
    TITLE "0:"
    INDEX 01 00:14:13
  TRACK 13 AUDIO
    TITLE "3:cjc005_1783"
    INDEX 01 00:14:64
  TRACK 14 AUDIO
    TITLE "0:"
    INDEX 01 00:15:74
  TRACK 15 AUDIO
    TITLE "4:cjc005_1784"
    INDEX 01 00:16:30
  TRACK 16 AUDIO
    TITLE "0:"
    INDEX 01 00:17:61
  TRACK 17 AUDIO
    TITLE "5:cjc005_1785"
    INDEX 01 00:18:09
  TRACK 18 AUDIO
    TITLE "0:"
    INDEX 01 00:23:16
  TRACK 19 AUDIO
    TITLE "3:cjc005_1786"
    INDEX 01 00:23:67
  TRACK 20 AUDIO
    TITLE "0:"
    INDEX 01 00:25:11
  TRACK 21 AUDIO
    TITLE "4:cjc005_1787"
    INDEX 01 00:25:35
  TRACK 22 AUDIO
    TITLE "0:"
    INDEX 01 00:26:46
  TRACK 23 AUDIO
    TITLE "5:cjc005_1788"
    INDEX 01 00:26:66
  TRACK 24 AUDIO
    TITLE "0:"
    INDEX 01 00:30:01
  TRACK 25 AUDIO
    TITLE "3:cjc005_1789"
    INDEX 01 00:30:54
  TRACK 26 AUDIO
    TITLE "0:"
    INDEX 01 00:32:01
  TRACK 27 AUDIO
    TITLE "4:cjc005_1790"
    INDEX 01 00:32:21
  TRACK 28 AUDIO
    TITLE "0:"
    INDEX 01 00:33:62
  TRACK 29 AUDIO
    TITLE "5:cjc005_1791"
    INDEX 01 00:34:10
  TRACK 30 AUDIO
    TITLE "0:"
    INDEX 01 00:37:52
  TRACK 31 AUDIO
    TITLE "3:cjc005_1792"
    INDEX 01 00:38:26
  TRACK 32 AUDIO
    TITLE "0:"
    INDEX 01 00:39:58
  TRACK 33 AUDIO
    TITLE "4:cjc005_1793"
    INDEX 01 00:40:11
  TRACK 34 AUDIO
    TITLE "0:"
    INDEX 01 00:41:22
  TRACK 35 AUDIO
    TITLE "5:cjc005_1794"
    INDEX 01 00:41:42
  TRACK 36 AUDIO
    TITLE "0:"
    INDEX 01 00:45:71
  TRACK 37 AUDIO
    TITLE "3:cjc005_1795"
    INDEX 01 00:46:49
  TRACK 38 AUDIO
    TITLE "0:"
    INDEX 01 00:47:70
  TRACK 39 AUDIO
    TITLE "4:cjc005_1796"
    INDEX 01 00:48:18
  TRACK 40 AUDIO
    TITLE "0:"
    INDEX 01 00:49:31
  TRACK 41 AUDIO
    TITLE "5:cjc005_1797"
    INDEX 01 00:49:55
  TRACK 42 AUDIO
    TITLE "0:"
    INDEX 01 00:53:08
  TRACK 43 AUDIO
    TITLE "3:cjc005_1798"
    INDEX 01 00:53:60
  TRACK 44 AUDIO
    TITLE "0:"
    INDEX 01 00:55:08
  TRACK 45 AUDIO
    TITLE "4:cjc005_1799"
    INDEX 01 00:55:28
  TRACK 46 AUDIO
    TITLE "0:"
    INDEX 01 00:56:41
  TRACK 47 AUDIO
    TITLE "5:cjc005_1800"
    INDEX 01 00:56:65
  TRACK 48 AUDIO
    TITLE "0:"
    INDEX 01 00:59:71
  TRACK 49 AUDIO
    TITLE "3:cjc005_1801"
    INDEX 01 01:00:51
  TRACK 50 AUDIO
    TITLE "0:"
    INDEX 01 01:01:70
  TRACK 51 AUDIO
    TITLE "4:cjc005_1802"
    INDEX 01 01:02:22
  TRACK 52 AUDIO
    TITLE "0:"
    INDEX 01 01:04:43
  TRACK 53 AUDIO
    TITLE "5:cjc005_1803"
    INDEX 01 01:04:70
  TRACK 54 AUDIO
    TITLE "0:"
    INDEX 01 01:09:10
  TRACK 55 AUDIO
    TITLE "3:cjc005_1804"
    INDEX 01 01:09:65
  TRACK 56 AUDIO
    TITLE "0:"
    INDEX 01 01:11:19
  TRACK 57 AUDIO
    TITLE "4:cjc005_1805"
    INDEX 01 01:11:39
  TRACK 58 AUDIO
    TITLE "0:"
    INDEX 01 01:12:52
  TRACK 59 AUDIO
    TITLE "5:cjc005_1806"
    INDEX 01 01:12:73
  TRACK 60 AUDIO
    TITLE "0:"
    INDEX 01 01:16:34
